<?xml version="1.0" encoding="UTF-8"?>
<svg version="1.1" xmlns="http://www.w3.org/2000/svg" width="814" height="445">
<path d="M0 0 C268.62 0 537.24 0 814 0 C814 146.85 814 293.7 814 445 C545.38 445 276.76 445 0 445 C0 298.15 0 151.3 0 0 Z " fill="#FEFEFE" transform="translate(0,0)"/>
<path d="M0 0 C9.37964715 -0.16258069 18.75880535 -0.28676462 28.13955688 -0.3626852 C32.49605265 -0.39913398 36.85158068 -0.44852733 41.20751953 -0.52807617 C45.41567413 -0.60444044 49.62290127 -0.64605308 53.83169556 -0.6641407 C55.43289788 -0.67702091 57.0340525 -0.70217433 58.63485718 -0.7401104 C72.74085749 -1.06093553 72.74085749 -1.06093553 77.87890625 3.34741211 C79.57641602 5.18760681 79.57641602 5.18760681 81 7 C81.46011475 7.53166275 81.92022949 8.0633255 82.39428711 8.61109924 C83.62405259 10.05072524 84.81331462 11.52466141 86 13 C88.55612636 15.68720976 91.1199811 18.09748464 94 20.4375 C97.07903881 23.06751232 99.45078401 25.8625034 102 29 C104.55612636 31.68720976 107.1199811 34.09748464 110 36.4375 C113.07903881 39.06751232 115.45078401 41.8625034 118 45 C120.55612636 47.68720976 123.1199811 50.09748464 126 52.4375 C129.07903881 55.06751232 131.45078401 57.8625034 134 61 C136.55612636 63.68720976 139.1199811 66.09748464 142 68.4375 C145.07903881 71.06751232 147.45078401 73.8625034 150 77 C152.55612636 79.68720976 155.1199811 82.09748464 158 84.4375 C161.07903881 87.06751232 163.45078401 89.8625034 166 93 C168.55612636 95.68720976 171.1199811 98.09748464 174 100.4375 C177.07903881 103.06751232 179.45078401 105.8625034 182 109 C184.55612636 111.68720976 187.1199811 114.09748464 190 116.4375 C192.23008522 118.34236446 193.88052054 119.95183772 195.6875 122.1875 C197.87671725 125.12754755 197.87671725 125.12754755 201 127 C199.89671223 130.3098633 199.1342753 130.96286803 196.51635742 133.11573792 C191.67693231 137.22584636 187.21617931 141.6507135 182.73828125 146.14819336 C181.40516655 147.48108902 181.40516655 147.48108902 180.04512024 148.84091187 C177.63269616 151.2539091 175.22249767 153.669088 172.81330109 156.08530498 C170.2860356 158.61886452 167.75589673 161.14955142 165.22607422 163.68055725 C160.44671343 168.46301363 155.66990527 173.24801108 150.89403152 178.03394943 C145.45217001 183.48702739 140.0074345 188.93723193 134.56246758 194.38720882 C123.37179932 205.5883013 112.18508851 216.79333532 101 228 C113.54 228.33 126.08 228.66 139 229 C139 237.91 139 246.82 139 256 C129.43 256 119.86 256 110 256 C110 289 110 322 110 356 C100.76 356 91.52 356 82 356 C82 323 82 290 82 256 C54.94 256 27.88 256 0 256 C3.68974781 251.69529423 7.20167767 247.67597541 11.18780518 243.71212769 C11.67337977 243.22781536 12.15895437 242.74350304 12.65924335 242.24451458 C14.26426411 240.64481164 15.87284796 239.04874247 17.48144531 237.45263672 C18.64187185 236.2974108 19.80205197 235.14193731 20.96200562 233.98623657 C23.44879284 231.50934548 25.9370382 229.03393199 28.42636871 226.55959702 C32.36280259 222.6463209 36.29427422 218.72808504 40.22479248 214.80886841 C51.39816143 203.66885982 62.57574222 192.53310131 73.76367188 181.40771484 C79.95131642 175.25457772 86.13360185 169.09610913 92.30995631 162.93163884 C96.21561829 159.03407506 100.12776229 155.14317469 104.04477739 151.25702262 C106.47737499 148.84042251 108.90365886 146.41756091 111.32817459 143.99285507 C112.45349236 142.8699602 113.58139077 141.74964471 114.71203995 140.63211823 C116.25509264 139.10623301 117.78861334 137.57135662 119.32012939 136.03390503 C120.18066547 135.17743315 121.04120155 134.32096127 121.92781448 133.43853569 C123.99193761 131.00948778 125.0246017 129.01285155 126 126 C124.515 125.505 124.515 125.505 123 125 C121.75198033 123.55492459 120.50876285 122.10461682 119.31640625 120.61328125 C116.53683177 117.20685912 113.40577868 114.32969518 110 111.5625 C106.92096119 108.93248768 104.54921599 106.1374966 102 103 C99.44387364 100.31279024 96.8800189 97.90251536 94 95.5625 C90.92096119 92.93248768 88.54921599 90.1374966 86 87 C83.44387364 84.31279024 80.8800189 81.90251536 78 79.5625 C74.92096119 76.93248768 72.54921599 74.1374966 70 71 C67.44387364 68.31279024 64.8800189 65.90251536 62 63.5625 C58.92096119 60.93248768 56.54921599 58.1374966 54 55 C51.44387364 52.31279024 48.8800189 49.90251536 46 47.5625 C42.92096119 44.93248768 40.54921599 42.1374966 38 39 C35.44387364 36.31279024 32.8800189 33.90251536 30 31.5625 C26.92096119 28.93248768 24.54921599 26.1374966 22 23 C19.44387364 20.31279024 16.8800189 17.90251536 14 15.5625 C10.92096119 12.93248768 8.54921599 10.1374966 6 7 C5.0925 6.0925 4.185 5.185 3.25 4.25 C1 2 1 2 0 0 Z " fill="#9992D5" transform="translate(278,34)"/>
<path d="M0 0 C1.0720166 0.00491455 2.1440332 0.0098291 3.24853516 0.01489258 C10.61934688 0.12426012 17.38888843 0.58935978 24.3125 3.3125 C25.58867187 3.80556641 25.58867187 3.80556641 26.890625 4.30859375 C37.37766618 8.95699084 48.46418279 18.75342454 53.3125 29.3125 C41.18346774 41.73185484 41.18346774 41.73185484 34.3125 46.3125 C33.93738281 45.70921875 33.56226562 45.1059375 33.17578125 44.484375 C27.53865337 35.68079998 21.37521841 31.47041672 11.625 28 C2.50397522 26.01093566 -7.63670659 27.68329379 -15.6875 32.3125 C-24.6068522 38.58210959 -30.1637583 46.71733212 -32.6875 57.3125 C-33.94533173 69.32148293 -31.72038891 78.76637471 -24.875 88.6875 C-18.60771576 96.37409289 -10.24891732 101.48847224 -0.359375 102.73046875 C8.88131217 103.10701658 17.38948197 101.58888694 24.54296875 95.375 C27.87944952 91.74270753 29.43705359 89.00111601 31.3125 84.3125 C21.7425 83.9825 12.1725 83.6525 2.3125 83.3125 C2.3125 75.0625 2.3125 66.8125 2.3125 58.3125 C21.7825 58.3125 41.2525 58.3125 61.3125 58.3125 C61.3125 83.16680464 61.3125 83.16680464 57.3125 93.3125 C56.98507813 94.17617188 56.65765625 95.03984375 56.3203125 95.9296875 C50.57807466 109.04881484 39.92997679 119.29534564 26.82421875 124.76953125 C23.34630276 126.06581143 19.86172145 127.22825096 16.3125 128.3125 C15.52101563 128.56 14.72953125 128.8075 13.9140625 129.0625 C-0.08364543 132.80909841 -15.7751712 130.09982516 -28.5625 123.625 C-43.62648336 114.6137116 -55.49643196 99.73038908 -60.0625 82.75 C-64.62284489 63.9219358 -61.71108247 44.88846324 -51.6875 28.3125 C-39.36796064 10.41430131 -21.80645327 -0.11672966 0 0 Z " fill="#9ECFB0" transform="translate(85.6875,261.6875)"/>
<path d="M0 0 C8.58 0 17.16 0 26 0 C28.67410627 5.70868003 31.34494853 11.41866642 34.0078125 17.13256836 C34.91382862 19.07419327 35.82168458 21.01496081 36.73144531 22.95483398 C38.04201109 25.75018189 39.34583606 28.54858982 40.6484375 31.34765625 C41.25635635 32.63870018 41.25635635 32.63870018 41.8765564 33.95582581 C44.02275384 38.58594964 45.75546924 43.04816986 47 48 C47.66 48 48.32 48 49 48 C49.19570839 46.90217949 49.19570839 46.90217949 49.39537048 45.78218079 C49.95686365 43.19849033 50.69784292 40.93652779 51.67407227 38.48510742 C52.01434952 37.62459274 52.35462677 36.76407806 52.70521545 35.87748718 C53.07190842 34.9627211 53.43860138 34.04795502 53.81640625 33.10546875 C54.19232407 32.15811356 54.56824188 31.21075836 54.95555115 30.23469543 C56.15390288 27.21736945 57.35811655 24.20242277 58.5625 21.1875 C59.37734106 19.13882613 60.19179867 17.0899997 61.00585938 15.04101562 C62.99946566 10.02556446 64.99833149 5.01223868 67 0 C72.61 0 78.22 0 84 0 C88.48738694 9.58396026 92.41144376 19.35548034 96.3125 29.1875 C96.96394942 30.8236646 97.61564037 32.45973305 98.26757812 34.09570312 C99.8478357 38.06270038 101.42483007 42.03098001 103 46 C105.79442593 44.60278704 106.05888148 42.99065399 107.28515625 40.13671875 C107.95164185 38.60132446 107.95164185 38.60132446 108.6315918 37.03491211 C109.1037915 35.93026611 109.57599121 34.82562012 110.0625 33.6875 C111.04872423 31.41113111 112.03571497 29.13509417 113.0234375 26.859375 C113.5194043 25.71275391 114.01537109 24.56613281 114.52636719 23.38476562 C116.70401076 18.382968 118.94037665 13.40838362 121.1875 8.4375 C122.445625 5.653125 123.70375 2.86875 125 0 C133.58 0 142.16 0 151 0 C150.13928894 4.30355529 149.08994349 7.36038211 147.3046875 11.3046875 C147.03415558 11.90572296 146.76362366 12.50675842 146.4848938 13.12600708 C145.61976256 15.0445652 144.74741836 16.95974638 143.875 18.875 C143.31204546 20.12219076 142.7495419 21.36958519 142.1875 22.6171875 C139.07612427 29.50859849 135.90096689 36.36865439 132.69281006 43.2154541 C130.4504901 48.01085835 128.25218998 52.825259 126.0703125 57.6484375 C125.74521698 58.36679779 125.42012146 59.08515808 125.08517456 59.82528687 C123.75511737 62.76597147 122.42610479 65.7071209 121.09960938 68.64941406 C120.1126625 70.83749228 119.12295462 73.02430374 118.1328125 75.2109375 C117.83182648 75.88055511 117.53084045 76.55017273 117.22073364 77.24008179 C115.11348562 81.88651438 115.11348562 81.88651438 114 83 C112.5112814 83.08669432 111.018555 83.10703494 109.52734375 83.09765625 C108.62822266 83.09443359 107.72910156 83.09121094 106.80273438 83.08789062 C105.38444336 83.07532227 105.38444336 83.07532227 103.9375 83.0625 C102.5134082 83.05573242 102.5134082 83.05573242 101.06054688 83.04882812 C98.70696935 83.0370011 96.35351523 83.02052025 94 83 C90.13680139 74.83005436 86.74870358 66.51614808 83.49584961 58.09033203 C82.67712635 55.97317451 81.84952258 53.85962295 81.02148438 51.74609375 C80.49686014 50.39343681 79.97275191 49.0405796 79.44921875 47.6875 C78.97830811 46.47449219 78.50739746 45.26148438 78.0222168 44.01171875 C77 41 77 41 77 38 C76.34 38 75.68 38 75 38 C74.90920166 38.63446045 74.81840332 39.2689209 74.72485352 39.92260742 C73.71486673 44.21054392 72.05738061 48.16262096 70.40234375 52.23828125 C70.04862198 53.11904831 69.69490021 53.99981537 69.33045959 54.90727234 C68.20352053 57.71066407 67.07059951 60.51159336 65.9375 63.3125 C65.17082776 65.2166374 64.40454719 67.12093255 63.63867188 69.02539062 C61.7643762 73.6857466 59.88200667 78.34272307 58 83 C51.07 83 44.14 83 37 83 C29.75913177 67.37212984 22.57584304 51.71946194 15.46240234 36.03320312 C14.83561294 34.65104123 14.20882258 33.26887977 13.58203125 31.88671875 C13.27751038 31.21510712 12.9729895 30.54349548 12.65924072 29.85153198 C10.72552725 25.58980033 8.77911525 21.33410198 6.82421875 17.08203125 C6.35258301 16.05368164 5.88094727 15.02533203 5.39501953 13.96582031 C4.53053571 12.08226561 3.66319222 10.20001976 2.79248047 8.31933594 C2.41881348 7.50368164 2.04514648 6.68802734 1.66015625 5.84765625 C1.17494507 4.7959021 1.17494507 4.7959021 0.67993164 3.72290039 C0 2 0 2 0 0 Z " fill="#9A93D5" transform="translate(494,307)"/>
<path d="M0 0 C9.46488883 6.30059168 16.15008278 15.64093767 18.640625 26.7578125 C19.60396936 37.15399306 20.23318386 48.59368178 14.640625 57.7578125 C14.21652344 58.51835937 13.79242188 59.27890625 13.35546875 60.0625 C6.79757016 70.91317343 -2.56431215 77.33222123 -14.8359375 80.37109375 C-27.47448572 82.30796105 -39.82686927 80.12862682 -50.359375 72.7578125 C-58.52834664 66.46694088 -63.13778752 57.42257494 -66.359375 47.7578125 C-67.28358341 36.8253831 -67.51653249 25.67687089 -62.359375 15.7578125 C-61.98554688 15.00628906 -61.61171875 14.25476563 -61.2265625 13.48046875 C-60.94039062 12.91199219 -60.65421875 12.34351563 -60.359375 11.7578125 C-59.699375 11.7578125 -59.039375 11.7578125 -58.359375 11.7578125 C-58.09125 11.16871094 -57.823125 10.57960938 -57.546875 9.97265625 C-53.06624648 1.61569451 -44.65639702 -2.47033981 -36.0078125 -5.36328125 C-23.41286895 -8.39739506 -11.06127109 -6.39576289 0 0 Z " fill="#9ED0B0" transform="translate(307.359375,311.2421875)"/>
<path d="M0 0 C9.55593448 7.03604765 16.88630017 15.75487281 19.46875 27.4921875 C20.61167131 41.0495989 20.28761222 54.68928834 11.2265625 65.6171875 C1.18470028 76.3285072 -9.08434749 81.33725111 -23.78125 81.8671875 C-36.27269777 81.61910968 -45.39498863 77.41615734 -54.23828125 68.8359375 C-63.95292395 58.40806786 -66.13273742 45.89207889 -65.84375 32.17578125 C-65.28323171 20.47729736 -59.58841593 12.23532211 -51.40625 4.3046875 C-37.52906158 -7.64380694 -15.71104721 -9.35874108 0 0 Z " fill="#9A93D5" transform="translate(474.53125,310.5078125)"/>
<path d="M0 0 C21.12 0 42.24 0 64 0 C64 13.2 64 26.4 64 40 C67.3 40.99 70.6 41.98 74 43 C78.95 44.65 83.9 46.3 89 48 C89 59.88 89 71.76 89 84 C76.46 84 63.92 84 51 84 C49.68 80.37 48.36 76.74 47 73 C42.34366274 68.24863545 38.84429743 66.8424478 32.3125 66.625 C26.35308568 66.69706063 22.26346079 67.71599241 18 72 C15.40043487 75.82734808 14.11939595 79.52241619 13 84 C8.71 84 4.42 84 0 84 C0 56.28 0 28.56 0 0 Z " fill="#D9D9D9" transform="translate(694,154)"/>
<path d="M0 0 C21.12 0 42.24 0 64 0 C64 13.2 64 26.4 64 40 C66.97 40.99 69.94 41.98 73 43 C75.8148329 44.02550445 78.61886604 45.07553719 81.421875 46.1328125 C84.36095032 47.18202968 84.36095032 47.18202968 89 48 C89 59.88 89 71.76 89 84 C76.46 84 63.92 84 51 84 C50.01 80.7 49.02 77.4 48 74 C46.17979335 71.70178518 46.17979335 71.70178518 43.9375 70.4375 C43.24527344 69.98246094 42.55304688 69.52742188 41.83984375 69.05859375 C36.77560964 66.14477752 31.7457951 66.48435172 26 67 C20.99160871 68.49531107 17.90465907 71.88819163 14.9453125 76.0234375 C13.62262573 78.55438233 13.62262573 78.55438233 13 84 C8.71 84 4.42 84 0 84 C0 56.28 0 28.56 0 0 Z " fill="#9DCFAF" transform="translate(210,154)"/>
<path d="M0 0 C25.41 0 50.82 0 77 0 C77 41.25 77 82.5 77 125 C51.59 125 26.18 125 0 125 C3.82380465 120.53889458 7.58051538 116.27568137 11.72998047 112.15649414 C12.26730301 111.61902557 12.80462555 111.08155701 13.35823059 110.52780151 C15.10885266 108.77786792 16.86297368 107.03148863 18.6171875 105.28515625 C19.84194489 104.06226684 21.06647953 102.8391543 22.290802 101.61582947 C25.49428634 98.41614044 28.70076366 95.21946752 31.90789795 92.0234375 C35.18782616 88.753788 38.46488126 85.4812616 41.7421875 82.20898438 C48.15866765 75.80318881 54.578317 69.40057951 61 63 C55.79884885 56.63206378 50.00697299 50.89035948 44.1798439 45.10467911 C42.35388119 43.29158509 40.5311533 41.47529305 38.709198 39.65817261 C34.85061398 35.81094969 30.98808223 31.96770543 27.125 28.125 C22.62632293 23.64991181 18.12927183 19.17321423 13.63637924 14.69231796 C11.83684845 12.89928871 10.03434481 11.10928431 8.23171997 9.31936646 C7.13887168 8.23014734 6.04616166 7.14078947 4.95361328 6.05126953 C4.44874893 5.5515715 3.94388458 5.05187347 3.42372131 4.53703308 C2.26335181 3.37684372 1.12857236 2.1911428 0 1 C0 0.67 0 0.34 0 0 Z " fill="#D9D9D9" transform="translate(611,113)"/>
<path d="M0 0 C25.08 0 50.16 0 76 0 C76 41.25 76 82.5 76 125 C50.59 125 25.18 125 -1 125 C2.82380465 120.53889458 6.58051538 116.27568137 10.72998047 112.15649414 C11.26730301 111.61902557 11.80462555 111.08155701 12.35823059 110.52780151 C14.10885266 108.77786792 15.86297368 107.03148863 17.6171875 105.28515625 C18.84194489 104.06226684 20.06647953 102.8391543 21.290802 101.61582947 C24.49428634 98.41614044 27.70076366 95.21946752 30.90789795 92.0234375 C34.18782616 88.753788 37.46488126 85.4812616 40.7421875 82.20898438 C47.15866765 75.80318881 53.578317 69.40057951 60 63 C59.21621152 61.87118968 58.42810128 60.74537936 57.63818359 59.62084961 C57.19977142 58.99359482 56.76135925 58.36634003 56.30966187 57.72007751 C54.66529038 55.56040067 52.84851121 54.10771988 50.625 52.5625 C46.76354792 49.70476974 43.75980971 46.65728384 40.6875 42.98046875 C37.97839691 39.80103527 34.9872314 36.91559515 32 34 C29.53569649 31.59300587 27.22516777 29.29271811 25.125 26.5625 C22.91098741 23.89266129 20.55604562 21.81143401 17.87890625 19.625 C15.46073359 17.53360743 13.24893802 15.27222584 11 13 C10.03674217 12.05697108 9.07186327 11.11559549 8.10546875 10.17578125 C7.13278804 9.2213791 6.16013192 8.26695188 5.1875 7.3125 C4.68541016 6.82716797 4.18332031 6.34183594 3.66601562 5.84179688 C2.40582727 4.59875394 1.19808956 3.30300108 0 2 C0 1.34 0 0.68 0 0 Z " fill="#9DD0AF" transform="translate(128,113)"/>
<path d="M0 0 C17 0 17 0 22.640625 3.98046875 C24.2231933 5.6742092 25.76030515 7.41152466 27.25 9.1875 C28.03761719 10.05181641 28.82523438 10.91613281 29.63671875 11.80664062 C31.14797862 13.46953618 32.64244 15.14790104 34.1171875 16.84326172 C36.30572555 19.35020482 38.61611474 21.67827125 41 24 C42.49107086 25.48809432 43.98045967 26.97787478 45.46875 28.46875 C46.28730469 29.28730469 47.10585937 30.10585937 47.94921875 30.94921875 C55.53125 38.53125 55.53125 38.53125 57.89404297 40.89624023 C59.14005953 42.14095676 60.38822078 43.38354272 61.64111328 44.62133789 C63.53542024 46.49382742 65.2468289 48.32087757 66.875 50.4375 C69.15593275 53.18803655 71.61732847 55.26824362 74.4140625 57.47265625 C76.17477259 59.16831547 77.03183133 60.77129489 78 63 C62 79 46 95 30 111 C29.41629639 110.78778809 28.83259277 110.57557617 28.23120117 110.35693359 C20.8389231 107.76344502 14.09432425 106.43671256 6.5625 109.3125 C4.31737143 110.7909993 2.15058132 112.38706401 0 114 C0 76.38 0 38.76 0 0 Z " fill="#9DD0AF" transform="translate(24,113)"/>
<path d="M0 0 C5.28 0 10.56 0 16 0 C17.65 1.98 19.3 3.96 21 6 C21.66 6.33 22.32 6.66 23 7 C23 7.66 23 8.32 23 9 C23.66 9 24.32 9 25 9 C25 9.66 25 10.32 25 11 C25.99 11.33 26.98 11.66 28 12 C29.6875 13.4375 29.6875 13.4375 31 15 C31 15.66 31 16.32 31 17 C31.66 17 32.32 17 33 17 C33 17.66 33 18.32 33 19 C33.99 19.33 34.98 19.66 36 20 C37.6484375 21.70703125 37.6484375 21.70703125 39.375 23.8125 C42.039335 26.96380379 44.75796527 29.4404989 48 32 C49.21526062 33.47110496 50.4295421 34.94322037 51.62109375 36.43359375 C53.11047696 38.12549932 54.69886294 39.50455737 56.4375 40.9375 C59.52132794 43.48733176 61.99149824 46.26362552 64.53125 49.34375 C66.76186576 51.85912522 69.41659523 53.8563237 72 56 C73.76040974 57.94060916 75.37334515 59.94276005 77 62 C72.55889625 67.32385077 67.86261528 72.25677863 62.93359375 77.12890625 C61.79882347 78.2579966 61.79882347 78.2579966 60.64112854 79.40989685 C58.24234312 81.79655226 55.84034193 84.1799291 53.4375 86.5625 C50.26660287 89.70670555 47.09909509 92.85426944 43.93359375 96.00390625 C43.21264023 96.71656143 42.49168671 97.42921661 41.74888611 98.16346741 C38.74284744 101.15492477 35.83866584 104.12073709 33.19165039 107.43725586 C31 110 31 110 28 111 C27.01 110.525625 26.02 110.05125 25 109.5625 C20.1176356 107.34324346 15.2613572 107.16330852 10 108 C7.03547644 109.33835287 4.57490157 111.03171684 2 113 C1.01 113.495 1.01 113.495 0 114 C0 76.38 0 38.76 0 0 Z " fill="#D9D9D9" transform="translate(508,113)"/>
<path d="M0 0 C1.2684375 1.0209375 1.2684375 1.0209375 2.5625 2.0625 C4.0165625 3.114375 4.0165625 3.114375 5.5 4.1875 C13.25596224 10.90526257 17.88281794 20.01570605 19.5625 30.0625 C19.5625 34.3525 19.5625 38.6425 19.5625 43.0625 C0.0925 43.0625 -19.3775 43.0625 -39.4375 43.0625 C-36.8539298 52.31664506 -36.8539298 52.31664506 -30.63671875 59.19921875 C-25.77187813 61.10886311 -20.03618341 60.85977435 -15.08203125 59.33984375 C-10.80014382 57.35555446 -8.09462063 55.04818095 -5.4375 51.0625 C2.34371942 53.08439166 9.96022708 55.44880407 17.5625 58.0625 C14.8588394 65.65912685 8.80832785 72.43958607 1.5625 76.0625 C-13.49751542 82.01416548 -27.83428136 83.24480249 -43.23046875 76.9140625 C-52.62054839 71.8769035 -59.14674005 63.35998895 -62.78125 53.44921875 C-66.38265447 40.35125369 -65.34500833 26.58713155 -59.1171875 14.5 C-52.97230121 4.56073038 -43.71214779 -1.91898489 -32.5625 -5.25 C-21.21469105 -7.59233331 -10.07509287 -5.67868871 0 0 Z " fill="#9ECFB0" transform="translate(214.4375,310.9375)"/>
<path d="M0 0 C0.69867187 0.24363281 1.39734375 0.48726563 2.1171875 0.73828125 C12.82025138 5.27311354 18.93480652 14.74066404 23.72265625 24.80078125 C26.68106772 32.21038063 26 37.51018633 26 46 C6.53 46 -12.94 46 -33 46 C-30.6543255 55.66895197 -30.6543255 55.66895197 -24.20703125 62.10546875 C-18.88996776 64.26052634 -12.6968643 63.69692641 -7.5 61.5625 C-6.675 61.046875 -5.85 60.53125 -5 60 C-4.01 59.67 -3.02 59.34 -2 59 C-1.505 58.01 -1.505 58.01 -1 57 C0 55 0 55 3 54 C5.17651367 54.52905273 5.17651367 54.52905273 7.66796875 55.43359375 C8.56064453 55.75263672 9.45332031 56.07167969 10.37304688 56.40039062 C11.76620117 56.91375977 11.76620117 56.91375977 13.1875 57.4375 C14.12787109 57.77587891 15.06824219 58.11425781 16.03710938 58.46289062 C18.36114742 59.30048809 20.68178235 60.14645283 23 61 C21.40009907 68.23196556 15.10678658 73.49622437 9.2421875 77.68359375 C-1.41889452 83.94280044 -14.32095881 85.66364993 -26.3828125 83.3515625 C-37.76748892 80.20260945 -46.90110822 74.28376965 -53 64 C-54.5837324 60.39797449 -55.85310241 56.7613308 -57 53 C-57.495 51.515 -57.495 51.515 -58 50 C-58.8927815 39.82229085 -59.39151005 28.98585009 -54 20 C-53.36384766 18.85724609 -53.36384766 18.85724609 -52.71484375 17.69140625 C-46.53981726 7.49143212 -38.25593705 1.66289572 -27 -2 C-17.69421834 -4.24770418 -8.94920308 -3.13358946 0 0 Z " fill="#9A93D4" transform="translate(702,308)"/>
<path d="M0 0 C12.87796416 -2.2812895 28.86105559 -4.79895363 40.50512695 2.54296875 C50.61389036 9.85672039 58.94920843 19.47341805 67.21276855 28.74084473 C70.64489086 32.54684194 74.18635586 36.2482641 77.71875 39.9609375 C84.58736598 47.21130111 91.33103086 54.56591629 98 62 C92.32490113 68.92110996 85.99130374 75.1726731 79.671875 81.49609375 C78.47447585 82.69671014 77.27715039 83.89740002 76.07989502 85.09815979 C73.58367762 87.60033469 71.08543283 90.10046498 68.5859375 92.59936523 C65.37727828 95.80792212 62.17559486 99.02334593 58.97556686 102.24050808 C56.51179704 104.7153596 54.0435331 107.18569016 51.57395172 109.65474129 C50.3905512 110.83932432 49.20877753 112.02553486 48.02864838 113.213377 C46.38673447 114.86502885 44.7386787 116.51029502 43.08886719 118.15405273 C42.60054413 118.6479953 42.11222107 119.14193787 41.60910034 119.65084839 C38.22832682 123 38.22832682 123 36 123 C35.67128906 122.11248047 35.67128906 122.11248047 35.3359375 121.20703125 C33.07281513 115.56762468 31.17075223 112.28143892 26 109 C23.32409606 108.08227121 20.79322601 107.52974976 18 107 C18 106.34 18 105.68 18 105 C19.45982361 103.55400085 19.45982361 103.55400085 21.48413086 101.8737793 C28.39217097 95.99551032 34.74931027 89.55124746 41.18481445 83.1652832 C42.78077395 81.58603875 44.38209975 80.01220048 45.98852539 78.44360352 C48.31824018 76.16830473 50.6313916 73.877307 52.94140625 71.58203125 C54.02706627 70.53037529 54.02706627 70.53037529 55.13465881 69.45747375 C55.78961838 68.79966415 56.44457794 68.14185455 57.11938477 67.46411133 C57.70148209 66.89010086 58.28357941 66.31609039 58.88331604 65.72468567 C60.22666726 64.04577525 60.22666726 64.04577525 59.77970886 61.90444946 C58.74778264 59.38395567 57.30578688 57.96752573 55.359375 56.06640625 C54.61816406 55.33486328 53.87695312 54.60332031 53.11328125 53.84960938 C51.94345703 52.71749023 51.94345703 52.71749023 50.75 51.5625 C49.98558594 50.81162109 49.22117188 50.06074219 48.43359375 49.28710938 C46.9481718 47.82862513 45.45997206 46.37296356 43.96875 44.92041016 C41.62493737 42.63414649 39.30930146 40.32108361 37 38 C36.1028125 37.1028125 35.205625 36.205625 34.28125 35.28125 C31.52083333 32.52083333 28.76041667 29.76041667 26 27 C25.24976562 26.25105469 24.49953125 25.50210938 23.7265625 24.73046875 C21.37271606 22.37325004 19.02544264 20.00979267 16.6796875 17.64453125 C15.07818506 16.03379445 13.47662102 14.42311889 11.875 12.8125 C11.06417969 11.99330078 10.25335938 11.17410156 9.41796875 10.33007812 C8.63808594 9.54697266 7.85820313 8.76386719 7.0546875 7.95703125 C5.99483643 6.88932495 5.99483643 6.88932495 4.91357422 5.80004883 C2.92661725 3.83114434 2.92661725 3.83114434 0 2 C0 1.34 0 0.68 0 0 Z " fill="#9A93D5" transform="translate(66,113)"/>
<path d="M0 0 C4.99864833 -0.14903087 9.99598642 -0.25753175 14.99633789 -0.32958984 C16.6948094 -0.35964557 18.39312719 -0.40050347 20.09106445 -0.45263672 C22.54156495 -0.52595765 24.99000383 -0.55956538 27.44140625 -0.5859375 C28.19273331 -0.61690521 28.94406036 -0.64787292 29.71815491 -0.67977905 C34.91129045 -0.68304675 37.59228693 0.60462514 41.32113647 4.19747925 C43.61110126 6.65611212 45.81697174 9.17543474 47.99661255 11.73217773 C52.17020121 16.45665441 56.71596916 20.83683577 61.18359375 25.28125 C62.24998085 26.34576772 63.31614419 27.41050962 64.38209534 28.47546387 C67.16305407 31.25263833 69.94700444 34.02679425 72.73162842 36.80029297 C75.5826948 39.64105638 78.43086669 42.48471872 81.27929688 45.328125 C86.85006518 50.8882283 92.42400319 56.44514018 98 62 C92.31978209 68.94103433 85.94998244 75.17673906 79.6015625 81.49609375 C78.39922532 82.69656287 77.19711095 83.89725518 75.99520874 85.09815979 C72.85090837 88.23866548 69.70361521 91.37615481 66.55566406 94.51300049 C63.33605827 97.72232618 60.11932679 100.93453005 56.90234375 104.14648438 C50.60435365 110.43379102 44.30319435 116.71791106 38 123 C36 120 36 120 34.1875 116.5625 C31.87659418 112.55015802 29.44238347 109.79593502 24.90234375 108.31640625 C22.94940507 107.81697749 20.97534391 107.40176486 19 107 C20.41773462 103.45566346 21.67612238 102.66193881 25 101 C25.30219452 100.3931134 25.60438904 99.78622681 25.91574097 99.16094971 C27.11478697 96.77122729 28.45430334 95.30461742 30.34814453 93.42480469 C31.02869904 92.74440125 31.70925354 92.0639978 32.41043091 91.36297607 C33.14381683 90.63991272 33.87720276 89.91684937 34.6328125 89.171875 C35.38464813 88.42286926 36.13648376 87.67386353 36.91110229 86.90216064 C39.31107901 84.5133698 41.71792009 82.13163103 44.125 79.75 C45.75436352 78.13066831 47.38327534 76.51088198 49.01171875 74.890625 C53.00258806 70.92179495 56.99911415 66.95873101 61 63 C57.28638368 58.56416864 53.46558379 54.33150628 49.33984375 50.27734375 C48.82748672 49.76877335 48.3151297 49.26020294 47.7872467 48.73622131 C46.1731176 47.13414794 44.55575617 45.53540379 42.9375 43.9375 C40.79778782 41.82461006 38.66157302 39.7082703 36.52734375 37.58984375 C35.80683083 36.88177834 35.80683083 36.88177834 35.07176208 36.15940857 C32.68480615 33.78956512 30.43422313 31.36629656 28.30297852 28.76782227 C26.14844622 25.9841775 26.14844622 25.9841775 23.625 24.125 C20.58644659 21.66521867 18.23869844 18.90152861 15.74609375 15.90234375 C14.03795174 13.91717219 14.03795174 13.91717219 11.78515625 12.37890625 C11.19605469 11.92386719 10.60695313 11.46882813 10 11 C10 10.34 10 9.68 10 9 C9.01 8.67 8.02 8.34 7 8 C7 7.34 7 6.68 7 6 C6.34 6 5.68 6 5 6 C5 5.34 5 4.68 5 4 C4.360625 3.71125 3.72125 3.4225 3.0625 3.125 C1 2 1 2 0 0 Z " fill="#9A93D5" transform="translate(549,113)"/>
<path d="M0 0 C0 8.91 0 17.82 0 27 C-3.96 27.33 -7.92 27.66 -12 28 C-17.01656516 30.37626771 -18.97230788 32.87740939 -21 38 C-21.82522078 40.81962584 -22.14346691 43.37585905 -22.20532227 46.30957031 C-22.22526749 47.15013977 -22.24521271 47.99070923 -22.26576233 48.85675049 C-22.29083107 50.20383087 -22.29083107 50.20383087 -22.31640625 51.578125 C-22.33718735 52.5046991 -22.35796844 53.43127319 -22.37937927 54.38592529 C-22.44466961 57.34054272 -22.50366431 60.29524768 -22.5625 63.25 C-22.60570473 65.25521732 -22.64931965 67.26042585 -22.69335938 69.265625 C-22.80110052 74.17699499 -22.90032658 79.08843313 -23 84 C-31.25 84 -39.5 84 -48 84 C-48 56.61 -48 29.22 -48 1 C-39.75 1 -31.5 1 -23 1 C-22.67 4.3 -22.34 7.6 -22 11 C-21.525625 10.29875 -21.05125 9.5975 -20.5625 8.875 C-18.37717837 6.42317573 -16.43574277 4.61824337 -13.8125 2.6875 C-13.11769531 2.17574219 -12.42289063 1.66398437 -11.70703125 1.13671875 C-9 0 -9 0 0 0 Z " fill="#9992D5" transform="translate(783,306)"/>
<path d="M0 0 C5.37943012 3.79005304 9.45807946 8.34870523 10.75 14.9375 C11.49070385 21.80058414 10.87099773 27.2616473 6.75 32.9375 C2.56893336 37.33097377 -1.88362345 40.20375313 -8 40.4375 C-12.8867752 40.30795368 -15.80326153 39.08265332 -19.48828125 35.8984375 C-23.96876907 30.91128697 -26.50415994 25.47987151 -26.75 18.75 C-26.32420699 11.93731181 -24.26958889 7.60963217 -19.1875 3.0625 C-13.26582027 -1.8556921 -7.38352423 -2.41384446 0 0 Z " fill="#FBFEFC" transform="translate(291.25,329.0625)"/>
<path d="M0 0 C5.43304593 3.74276498 9.51802864 8.33569608 10.8125 14.9375 C11.55207132 21.7900905 10.97020216 27.29317759 6.8125 32.9375 C2.52406446 37.41111799 -1.0871811 40.03906283 -7.4375 40.25 C-12.10826829 40.15915848 -15.67741278 39.09574076 -19.1875 35.9375 C-24.29751543 29.65091217 -26.59373402 24.39590159 -26.4609375 16.30859375 C-25.68441986 9.57507649 -21.96561702 5.2305266 -16.87109375 1.06640625 C-11.89081673 -2.27303704 -5.4623751 -1.8207917 0 0 Z " fill="#FDFCFD" transform="translate(459.1875,329.0625)"/>
<path d="M0 0 C3.12578143 1.6720747 5.39281175 3.7856235 7 7 C7.51512617 11.09157355 7.94367269 15.23589546 5.953125 18.95703125 C3.55501226 21.85592636 1.60351712 23.79811835 -2.171875 24.2734375 C-9.98876369 24.58137554 -9.98876369 24.58137554 -13.5625 21.625 C-17.3057723 17.59378368 -17.39037018 14.90519941 -17.359375 9.55078125 C-16.78039966 5.44131496 -15.00085071 3.78650423 -12 1 C-8.27533151 -0.86233425 -4.05504687 -0.57130829 0 0 Z " fill="#9FCFB0" transform="translate(45,227)"/>
<path d="M0 0 C3.12578143 1.6720747 5.39281175 3.7856235 7 7 C7.51512617 11.09157355 7.94367269 15.23589546 5.953125 18.95703125 C3.55501226 21.85592636 1.60351712 23.79811835 -2.171875 24.2734375 C-9.98876369 24.58137554 -9.98876369 24.58137554 -13.5625 21.625 C-17.3057723 17.59378368 -17.39037018 14.90519941 -17.359375 9.55078125 C-16.78039966 5.44131496 -15.00085071 3.78650423 -12 1 C-8.27533151 -0.86233425 -4.05504687 -0.57130829 0 0 Z " fill="#9B94D3" transform="translate(572,227)"/>
<path d="M0 0 C3.12578143 1.6720747 5.39281175 3.7856235 7 7 C7.51512617 11.09157355 7.94367269 15.23589546 5.953125 18.95703125 C3.54128662 21.87251823 1.60239647 23.8269979 -2.20703125 24.23828125 C-9.27247593 24.43954579 -9.27247593 24.43954579 -13 22.1875 C-16.94265279 17.87522351 -17.48543347 15.16809053 -17.39453125 9.515625 C-16.75668449 5.4485625 -14.9805206 3.76762628 -12 1 C-8.27533151 -0.86233425 -4.05504687 -0.57130829 0 0 Z " fill="#9A93D4" transform="translate(88,227)"/>
<path d="M0 0 C3.77067823 1.63942532 5.81463291 3.55360877 8 7 C8.86120395 11.77153538 8.70334178 15.79427124 6.25 20 C2.11094006 23.67916439 -1.29723489 24.49336702 -6.7421875 24.39453125 C-10.59075968 23.72202988 -12.33977988 21.79323112 -15 19 C-16.86233425 15.27533151 -16.57130829 11.05504687 -16 7 C-12.27422487 0.03502484 -7.27191959 -0.70576689 0 0 Z " fill="#9ECFAF" transform="translate(246,227)"/>
<path d="M0 0 C3.79866602 1.61645362 5.80314155 3.54516394 8 7 C8.86120395 11.77153538 8.70334178 15.79427124 6.25 20 C2.25625587 23.54999478 -0.47550991 24.45745032 -5.96875 24.32421875 C-9.31551204 23.79002404 -11.44251471 22.13123774 -14 20 C-16.85635707 15.7154644 -16.83461529 12.02286655 -16 7 C-12.743015 -0.25769099 -7.41111086 -1.36324782 0 0 Z " fill="#D9D9D9" transform="translate(730,227)"/>
<path d="M0 0 C3.77067823 1.63942532 5.81463291 3.55360877 8 7 C8.86120395 11.77153538 8.70334178 15.79427124 6.25 20 C1.93406637 23.83638545 -1.81651109 24.63941466 -7.515625 24.49609375 C-11.19689356 23.76099767 -12.8510183 22.21210251 -14.99609375 19.19921875 C-16.857079 15.12243006 -16.97881796 11.34395124 -16 7 C-12.18272518 0.06458495 -7.33269881 -0.71166574 0 0 Z " fill="#D9D9D9" transform="translate(528,227)"/>
<path d="M0 0 C4.11168663 2.70997528 6.96684596 6.20601873 8.75 10.8125 C8.75 12.1325 8.75 13.4525 8.75 14.8125 C-2.14 14.8125 -13.03 14.8125 -24.25 14.8125 C-23.26839661 8.92287968 -22.47204933 5.12723167 -17.48828125 1.546875 C-11.55292357 -1.76479805 -6.50589058 -2.37715233 0 0 Z " fill="#F9F9FD" transform="translate(693.25,323.1875)"/>
<path d="M0 0 C3.55289944 2.99988951 5.27297151 7.24446976 6.83203125 11.546875 C6.83203125 12.206875 6.83203125 12.866875 6.83203125 13.546875 C-4.05796875 13.546875 -14.94796875 13.546875 -26.16796875 13.546875 C-25.13332182 6.30434649 -24.27444592 4.15515928 -19.16796875 -0.453125 C-13.14908034 -4.09613641 -5.97718419 -3.25385175 0 0 Z " fill="#F7FCF8" transform="translate(202.16796875,324.453125)"/>
<path d="M0 0 C8.25 0 16.5 0 25 0 C25 3.3 25 6.6 25 10 C24.67 10 24.34 10 24 10 C24 7.03 24 4.06 24 1 C21.69 1.33 19.38 1.66 17 2 C12.05 2 7.1 2 2 2 C2 28.4 2 54.8 2 82 C6.95 82 11.9 82 17 82 C17 82.33 17 82.66 17 83 C11.39 83 5.78 83 0 83 C0 55.61 0 28.22 0 0 Z " fill="#9F99CA" transform="translate(735,307)"/>
<path d="M0 0 C0.33 0 0.66 0 1 0 C1 41.25 1 82.5 1 125 C-24.41 125 -49.82 125 -76 125 C-74.35 123.35 -72.7 121.7 -71 120 C-70.67 121.32 -70.34 122.64 -70 124 C-46.9 124 -23.8 124 0 124 C0 83.08 0 42.16 0 0 Z " fill="#A5CBB4" transform="translate(203,113)"/>
<path d="M0 0 C8.58 0 17.16 0 26 0 C25.67 1.65 25.34 3.3 25 5 C24.34 5 23.68 5 23 5 C23 4.01 23 3.02 23 2 C15.41 2.33 7.82 2.66 0 3 C-0.33 4.65 -0.66 6.3 -1 8 C-1.89305874 10.39228689 -2.94896026 12.66943362 -4 15 C-4.66 15 -5.32 15 -6 15 C-4.37487159 9.71833268 -2.28976174 5.15196391 0 0 Z " fill="#9F99CA" transform="translate(619,307)"/>
<path d="M0 0 C0.66 0 1.32 0 2 0 C2 11.88 2 23.76 2 36 C-9.55 36 -21.1 36 -33 36 C-33 35.67 -33 35.34 -33 35 C-22.11 34.67 -11.22 34.34 0 34 C0.020625 29.276875 0.04125 24.55375 0.0625 19.6875 C0.071604 18.20080811 0.08070801 16.71411621 0.09008789 15.18237305 C0.09258545 14.01230713 0.09508301 12.84224121 0.09765625 11.63671875 C0.10289307 10.43748779 0.10812988 9.23825684 0.11352539 8.00268555 C0.13845618 4.94843549 0.13845618 4.94843549 -1 2 C-0.67 1.34 -0.34 0.68 0 0 Z " fill="#A8CAB6" transform="translate(297,202)"/>
<path d="M0 0 C11.88 0 23.76 0 36 0 C36 0.33 36 0.66 36 1 C23.625 1.495 23.625 1.495 11 2 C10.67 2.66 10.34 3.32 10 4 C7.525 3.01 7.525 3.01 5 2 C5 2.66 5 3.32 5 4 C1.125 2.25 1.125 2.25 0 0 Z " fill="#9D99C6" transform="translate(549,113)"/>
<path d="M0 0 C8.58 0 17.16 0 26 0 C26 0.66 26 1.32 26 2 C18.41 2 10.82 2 3 2 C3 2.66 3 3.32 3 4 C2.34 4 1.68 4 1 4 C0.67 2.68 0.34 1.36 0 0 Z " fill="#9B95C6" transform="translate(494,307)"/>
<path d="M0 0 C0.66 0.33 1.32 0.66 2 1 C0.02 1.99 0.02 1.99 -2 3 C-2 3.66 -2 4.32 -2 5 C-3.11375 5.86625 -3.11375 5.86625 -4.25 6.75 C-8.07699069 9.8811742 -10.21237125 13.60650298 -12.625 17.875 C-13.07875 18.57625 -13.5325 19.2775 -14 20 C-14.66 20 -15.32 20 -16 20 C-13.04392295 11.62444836 -7.34595097 4.89730065 0 0 Z " fill="#A09BCD" transform="translate(428,311)"/>
<path d="M0 0 C0.66 0.33 1.32 0.66 2 1 C1.34 2.65 0.68 4.3 0 6 C-6.93 6 -13.86 6 -21 6 C-21.33 5.01 -21.66 4.02 -22 3 C-21.01 3.33 -20.02 3.66 -19 4 C-17.66636297 4.14403348 -16.32781954 4.24590423 -14.98828125 4.31640625 C-14.23095703 4.35830078 -13.47363281 4.40019531 -12.69335938 4.44335938 C-11.51483398 4.50233398 -11.51483398 4.50233398 -10.3125 4.5625 C-9.51521484 4.60568359 -8.71792969 4.64886719 -7.89648438 4.69335938 C-5.93118553 4.79927368 -3.96561504 4.90012551 -2 5 C-1.855625 4.360625 -1.71125 3.72125 -1.5625 3.0625 C-1 1 -1 1 0 0 Z " fill="#9D97C9" transform="translate(552,384)"/>
<path d="M0 0 C2.475 0.99 2.475 0.99 5 2 C5.4375 5.1875 5.4375 5.1875 5 9 C2.91454966 11.11158381 0.58793807 12.56739143 -2 14 C-2.66 13.67 -3.32 13.34 -4 13 C-1.69 10.69 0.62 8.38 3 6 C2.2575 5.071875 2.2575 5.071875 1.5 4.125 C0 2 0 2 0 0 Z " fill="#A49FCF" transform="translate(607,170)"/>
<path d="M0 0 C3.3125 0.625 3.3125 0.625 7 2 C8.8125 4.875 8.8125 4.875 10 8 C10.391875 8.78375 10.78375 9.5675 11.1875 10.375 C11.455625 10.91125 11.72375 11.4475 12 12 C6.63885521 8.53102396 3.46897604 5.36114479 0 0 Z " fill="#9C97CC" transform="translate(332,88)"/>
<path d="M0 0 C1.06739919 3.20219758 1.10959246 3.94862074 0 7 C-1.4375 9.25 -1.4375 9.25 -3 11 C-3.66 11 -4.32 11 -5 11 C-5 11.99 -5 12.98 -5 14 C-5.66 14 -6.32 14 -7 14 C-5.53967505 8.68972746 -3.01679014 4.53669968 0 0 Z " fill="#A9CFB6" transform="translate(35,289)"/>
<path d="M0 0 C2.375 -0.125 2.375 -0.125 5 0 C7.25693432 2.25693432 7.87292007 4.04141517 9 7 C9.65213539 8.34050052 10.31379969 9.67661368 11 11 C6.03353764 7.75269769 2.98127544 5.12779375 0 0 Z " fill="#9D97CC" transform="translate(349,105)"/>
<path d="M0 0 C-2.46210245 1.32858633 -3.97827434 1.99806883 -6.8125 2.25 C-11.25931819 3.29631016 -13.773817 5.87881112 -17 9 C-14.22008375 -0.09790773 -8.46400786 -0.5916588 0 0 Z " fill="#AACFB9" transform="translate(45,227)"/>
<path d="M0 0 C0 0.99 0 1.98 0 3 C-3.27075883 3.0580476 -6.54138524 3.09361165 -9.8125 3.125 C-10.74126953 3.14175781 -11.67003906 3.15851563 -12.62695312 3.17578125 C-13.51962891 3.18222656 -14.41230469 3.18867188 -15.33203125 3.1953125 C-16.15421143 3.20578613 -16.9763916 3.21625977 -17.82348633 3.22705078 C-20 3 -20 3 -23 1 C-21.10314453 1.01740234 -21.10314453 1.01740234 -19.16796875 1.03515625 C-17.50781398 1.04453566 -15.84765761 1.0536357 -14.1875 1.0625 C-13.35412109 1.07087891 -12.52074219 1.07925781 -11.66210938 1.08789062 C-10.45844727 1.09272461 -10.45844727 1.09272461 -9.23046875 1.09765625 C-8.49207764 1.10289307 -7.75368652 1.10812988 -6.99291992 1.11352539 C-4.51552873 0.97240241 -2.48885066 0 0 0 Z " fill="#ABCCB5" transform="translate(101,363)"/>
<path d="M0 0 C0 3 0 3 -2 5.3125 C-5.40635606 8.53234088 -9.2054658 11.26002617 -13 14 C-11.43416404 9.96278439 -8.55826135 7.52929418 -5.375 4.75 C-4.859375 4.29109375 -4.34375 3.8321875 -3.8125 3.359375 C-2.5465398 2.23407704 -1.27392058 1.11627823 0 0 Z " fill="#EEFBF3" transform="translate(137,292)"/>
<path d="M0 0 C1.51400391 0.01740234 1.51400391 0.01740234 3.05859375 0.03515625 C4.07050781 0.04417969 5.08242187 0.05320312 6.125 0.0625 C7.29869141 0.07990234 7.29869141 0.07990234 8.49609375 0.09765625 C3.60521696 2.71776882 -0.20595875 3.22046003 -5.75390625 3.16015625 C-6.8315625 3.15113281 -7.90921875 3.14210938 -9.01953125 3.1328125 C-9.839375 3.12121094 -10.65921875 3.10960937 -11.50390625 3.09765625 C-11.50390625 2.76765625 -11.50390625 2.43765625 -11.50390625 2.09765625 C-9.453125 1.86979167 -7.40234375 1.64192708 -5.3515625 1.4140625 C-2.80701946 0.97831623 -2.79909069 0.1091689 0 0 Z " fill="#B4D5BF" transform="translate(199.50390625,388.90234375)"/>
<path d="M0 0 C-1.25125384 3.75376152 -2.5652404 4.24073289 -6 6 C-6.66 6 -7.32 6 -8 6 C-8 6.66 -8 7.32 -8 8 C-9.32 7.67 -10.64 7.34 -12 7 C-10.70982586 6.01886757 -9.41780894 5.04015801 -8.125 4.0625 C-7.04605469 3.24458984 -7.04605469 3.24458984 -5.9453125 2.41015625 C-2.62049861 0 -2.62049861 0 0 0 Z " fill="#ABD0B9" transform="translate(60,268)"/>
<path d="M0 0 C0.66 0 1.32 0 2 0 C1.67 1.32 1.34 2.64 1 4 C2.32 4.66 3.64 5.32 5 6 C4.67 6.66 4.34 7.32 4 8 C1.36 7.34 -1.28 6.68 -4 6 C-2.84826645 3.53199953 -1.95216435 1.95216435 0 0 Z " fill="#A5A0CE" transform="translate(572,214)"/>
<path d="M0 0 C0 3 0 3 -1.27734375 4.5 C-1.82519531 4.995 -2.37304688 5.49 -2.9375 6 C-5.27535925 8.12231195 -5.96275884 8.88827651 -7 12 C-7.99 12.33 -8.98 12.66 -10 13 C-10 10 -10 10 -7.8125 7.51953125 C-6.884375 6.62621094 -5.95625 5.73289063 -5 4.8125 C-4.071875 3.91144531 -3.14375 3.01039063 -2.1875 2.08203125 C-1.1046875 1.05142578 -1.1046875 1.05142578 0 0 Z " fill="#B0D1BB" transform="translate(187,177)"/>
<path d="M0 0 C-6.89715536 4.07877462 -6.89715536 4.07877462 -11.5 3.75 C-12.325 3.5025 -13.15 3.255 -14 3 C-9.491643 -0.00557133 -5.27839413 -1.63572214 0 0 Z " fill="#B2D1BC" transform="translate(78,263)"/>
<path d="M0 0 C0 4.1041911 -1.45843064 5.84021107 -4 9 C-6.75 9.875 -6.75 9.875 -9 10 C-8.06409496 8.8944811 -7.12620142 7.79064547 -6.1875 6.6875 C-5.66542969 6.07261719 -5.14335938 5.45773438 -4.60546875 4.82421875 C-3.12827531 3.14575321 -1.59960869 1.56117966 0 0 Z " fill="#A8A4D1" transform="translate(599,187)"/>
<path d="M0 0 C2 2 2 2 2.265625 4.3125 C2.25789062 5.6428125 2.25789062 5.6428125 2.25 7 C2.25515625 7.886875 2.2603125 8.77375 2.265625 9.6875 C2 12 2 12 0 14 C0.020625 12.783125 0.04125 11.56625 0.0625 10.3125 C0.07399832 7.06997349 -0.32628103 4.1761037 -1 1 C-0.67 0.67 -0.34 0.34 0 0 Z " fill="#ACCDB9" transform="translate(252,232)"/>
<path d="M0 0 C0.33 1.32 0.66 2.64 1 4 C-1.3125 6.0625 -1.3125 6.0625 -4 8 C-4.99 7.67 -5.98 7.34 -7 7 C-4.69 4.69 -2.38 2.38 0 0 Z " fill="#ABD0B8" transform="translate(166,198)"/>
<path d="M0 0 C0 3 0 3 -1.96875 5.04296875 C-2.8040625 5.75066406 -3.639375 6.45835937 -4.5 7.1875 C-5.3353125 7.90292969 -6.170625 8.61835938 -7.03125 9.35546875 C-7.6809375 9.89816406 -8.330625 10.44085938 -9 11 C-9.66 10.67 -10.32 10.34 -11 10 C-9.54474941 8.51780033 -8.085701 7.03932861 -6.625 5.5625 C-5.81289063 4.73878906 -5.00078125 3.91507813 -4.1640625 3.06640625 C-2 1 -2 1 0 0 Z " fill="#9C95CA" transform="translate(405,163)"/>
<path d="M0 0 C3 1 6 2 9 3 C9 3.66 9 4.32 9 5 C8.34 5 7.68 5 7 5 C6.67 5.66 6.34 6.32 6 7 C4.02 4.69 2.04 2.38 0 0 Z " fill="#A69FD8" transform="translate(580,144)"/>
<path d="M0 0 C0.66 0.66 1.32 1.32 2 2 C1.21625 2.9075 0.4325 3.815 -0.375 4.75 C-2.30052496 7.05190236 -3.82205741 9.21577207 -5 12 C-5.35338623 9.03155565 -5.5417682 6.84401782 -3.88671875 4.265625 C-2.64496832 2.79651181 -1.32662082 1.39295186 0 0 Z " fill="#A9CEB6" transform="translate(270,331)"/>
<path d="M0 0 C2.64 0 5.28 0 8 0 C8.33 1.32 8.66 2.64 9 4 C9.66 4 10.32 4 11 4 C10.67 4.66 10.34 5.32 10 6 C6.7 4.35 3.4 2.7 0 1 C0 0.67 0 0.34 0 0 Z " fill="#ADD1BA" transform="translate(101,290)"/>
<path d="M0 0 C0.33 0.99 0.66 1.98 1 3 C1.99 3.33 2.98 3.66 4 4 C4.99 4.33 5.98 4.66 7 5 C7.33 5.99 7.66 6.98 8 8 C3.56541027 6.6062718 1.12621626 4.39417765 -2 1 C-1.34 0.67 -0.68 0.34 0 0 Z " fill="#B1D2BD" transform="translate(164,379)"/>
<path d="M0 0 C2.34058637 2.12780579 3.70700306 4.11562221 5 7 C3.68 7.99 2.36 8.98 1 10 C0.67 9.01 0.34 8.02 0 7 C0.33 6.34 0.66 5.68 1 5 C0.72057545 3.32345271 0.39171753 1.65391846 0 0 Z " fill="#AED0B9" transform="translate(134,284)"/>
<path d="M0 0 C0.33 0 0.66 0 1 0 C1.63019694 9.17286652 1.63019694 9.17286652 -1 12.625 C-1.66 13.07875 -2.32 13.5325 -3 14 C-2.85691406 13.44828125 -2.71382812 12.8965625 -2.56640625 12.328125 C-1.9544691 9.81285231 -1.43873189 7.28957492 -0.9375 4.75 C-0.67259766 3.41195312 -0.67259766 3.41195312 -0.40234375 2.046875 C-0.26957031 1.37140625 -0.13679688 0.6959375 0 0 Z " fill="#ADCEB8" transform="translate(51,234)"/>
<path d="M0 0 C0.33 0.66 0.66 1.32 1 2 C-0.21258505 5.23356015 -1.01284458 6.00856305 -4 8 C-4.99 7.67 -5.98 7.34 -7 7 C-4.69 4.69 -2.38 2.38 0 0 Z " fill="#AED1BA" transform="translate(150,214)"/>
<path d="M0 0 C1.98 0.99 1.98 0.99 4 2 C4 2.99 4 3.98 4 5 C2 6.6875 2 6.6875 0 8 C0 5.36 0 2.72 0 0 Z " fill="#A29ECC" transform="translate(642,172)"/>
<path d="M0 0 C2.5 2.3125 2.5 2.3125 5 5 C5 5.99 5 6.98 5 8 C4.01 8.495 4.01 8.495 3 9 C2.01 6.03 1.02 3.06 0 0 Z " fill="#AFD1BB" transform="translate(96,169)"/>
<path d="M0 0 C0.66 0.33 1.32 0.66 2 1 C-1.96 4.465 -1.96 4.465 -6 8 C-6.66 7.67 -7.32 7.34 -8 7 C-5.36 4.69 -2.72 2.38 0 0 Z " fill="#AFD1BC" transform="translate(168,312)"/>
<path d="M0 0 C0.268125 0.5775 0.53625 1.155 0.8125 1.75 C1.93880119 4.06461975 1.93880119 4.06461975 3.6875 6.0625 C4.120625 6.701875 4.55375 7.34125 5 8 C4.67 8.99 4.34 9.98 4 11 C1.29727467 8.12835434 0.05208163 6.69008159 -0.25 2.6875 C-0.1675 1.800625 -0.085 0.91375 0 0 Z " fill="#AECCB9" transform="translate(230,238)"/>
<path d="M0 0 C0 3.16880694 -0.2058242 4.43689172 -2 7 C-4.625 7.75 -4.625 7.75 -7 8 C-6.02133662 6.85373678 -5.04205413 5.70800212 -4.0625 4.5625 C-3.51722656 3.92441406 -2.97195312 3.28632813 -2.41015625 2.62890625 C-1.63204305 1.73008851 -0.84063472 0.84063472 0 0 Z " fill="#AFD2BC" transform="translate(158,206)"/>
<path d="M0 0 C4.19360449 0.67097672 7.40334352 2.8558394 11 5 C10.34 5.66 9.68 6.32 9 7 C8.443125 6.566875 7.88625 6.13375 7.3125 5.6875 C4.98072351 3.92891017 4.98072351 3.92891017 2.25 2.375 C1.5075 1.92125 0.765 1.4675 0 1 C0 0.67 0 0.34 0 0 Z " fill="#AECFB8" transform="translate(112,267)"/>
<path d="M0 0 C-2.95183101 2.95183101 -5.95511947 3.08663988 -10 4 C-10 3.34 -10 2.68 -10 2 C-6.3558226 -0.4294516 -4.28758728 -0.16179575 0 0 Z " fill="#A9D0BA" transform="translate(303,387)"/>
<path d="M0 0 C0.99 0.33 1.98 0.66 3 1 C0.69 3.31 -1.62 5.62 -4 8 C-4.33 7.34 -4.66 6.68 -5 6 C-3.35 4.02 -1.7 2.04 0 0 Z " fill="#9E99CA" transform="translate(720,374)"/>
<path d="M0 0 C1.32 0.33 2.64 0.66 4 1 C2.25 5.875 2.25 5.875 0 7 C0 4.69 0 2.38 0 0 Z " fill="#A09ACA" transform="translate(91,241)"/>
<path d="M0 0 C0.66 0.33 1.32 0.66 2 1 C0.02 3.31 -1.96 5.62 -4 8 C-4.33 7.34 -4.66 6.68 -5 6 C-3.35 4.02 -1.7 2.04 0 0 Z " fill="#AED0BB" transform="translate(235,228)"/>
<path d="M0 0 C2.97 1.98 2.97 1.98 6 4 C5.67 4.99 5.34 5.98 5 7 C4.01 7.33 3.02 7.66 2 8 C1.855625 7.236875 1.71125 6.47375 1.5625 5.6875 C1.0367406 2.91827092 1.0367406 2.91827092 0 0 Z " fill="#A59ECD" transform="translate(473,157)"/>
<path d="M0 0 C1.32 0 2.64 0 4 0 C4 0.99 4 1.98 4 3 C4.99 3.33 5.98 3.66 7 4 C6.67 4.99 6.34 5.98 6 7 C4.02 4.69 2.04 2.38 0 0 Z " fill="#A7A2D2" transform="translate(594,158)"/>
<path d="M0 0 C2.125 0.9375 2.125 0.9375 4 2 C2.1875 3.5625 2.1875 3.5625 0 5 C-0.99 4.67 -1.98 4.34 -3 4 C-2.67 3.01 -2.34 2.02 -2 1 C-1.34 0.67 -0.68 0.34 0 0 Z " fill="#A7D0B7" transform="translate(123,376)"/>
<path d="M0 0 C1.65 1.65 3.3 3.3 5 5 C4.67 5.66 4.34 6.32 4 7 C3.34 7 2.68 7 2 7 C0 4 0 4 0 0 Z " fill="#A199CE" transform="translate(484,320)"/>
<path d="M0 0 C1.65 1.65 3.3 3.3 5 5 C4.67 5.99 4.34 6.98 4 8 C3.34 8 2.68 8 2 8 C1.34 5.36 0.68 2.72 0 0 Z " fill="#A09CCC" transform="translate(90,229)"/>
<path d="M0 0 C4.455 0.99 4.455 0.99 9 2 C9 2.33 9 2.66 9 3 C5.37 3.33 1.74 3.66 -2 4 C-2 3.34 -2 2.68 -2 2 C-1.34 2 -0.68 2 0 2 C0 1.34 0 0.68 0 0 Z " fill="#B1D5BD" transform="translate(237,217)"/>
</svg>
